<?xml version="1.0" standalone="no"?><!DOCTYPE svg PUBLIC "-//W3C//DTD SVG 1.1//EN" "http://www.w3.org/Graphics/SVG/1.1/DTD/svg11.dtd"><svg t="1784601501853" class="icon" viewBox="0 0 1024 1024" version="1.1" xmlns="http://www.w3.org/2000/svg" p-id="1693" xmlns:xlink="http://www.w3.org/1999/xlink" width="200" height="200"><path d="M873.813333 150.186667c-197.973333-197.973333-522.24-197.973333-720.213333 0s-197.973333 522.24 0 720.213333 522.24 197.973333 720.213333 0c146.773333-146.773333 187.733333-368.64 109.226667-559.786667-23.893333-58.026667-61.44-112.64-109.226667-160.426666zM938.666667 512c0 235.52-191.146667 426.666667-430.08 426.666667-232.106667 0-426.666667-191.146667-423.253334-426.666667C85.333333 276.48 276.48 85.333333 512 85.333333S938.666667 276.48 938.666667 512z" fill="#d81e06" p-id="1694"></path><path d="M512 344.746667c-92.16 0-167.253333 13.653333-170.666667 30.72v283.306666c3.413333 17.066667 85.333333 30.72 180.906667 30.72 88.746667 0 157.013333-13.653333 160.426667-30.72V375.466667c-3.413333-20.48-78.506667-30.72-170.666667-30.72z" fill="#d81e06" p-id="1695"></path></svg>