<?xml version="1.0" standalone="no"?><!DOCTYPE svg PUBLIC "-//W3C//DTD SVG 1.1//EN" "http://www.w3.org/Graphics/SVG/1.1/DTD/svg11.dtd"><svg t="1781767107010" class="icon" viewBox="0 0 1024 1024" version="1.1" xmlns="http://www.w3.org/2000/svg" p-id="9871" xmlns:xlink="http://www.w3.org/1999/xlink" width="200" height="200"><path d="M978.716444 67.527111l-0.113777-0.227555a36.238222 36.238222 0 0 0-20.821334-17.408l-0.284444-0.113778a31.288889 31.288889 0 0 0-5.290667-1.137778c-0.512-0.113778-1.024-0.341333-1.592889-0.341333a27.875556 27.875556 0 0 0-5.006222-0.113778h-1.991111a36.693333 36.693333 0 0 0-13.994667 3.925333L61.44 482.588444a35.043556 35.043556 0 0 0-19.569778 28.330667 34.816 34.816 0 0 0 18.602667 36.920889l220.273778 115.768889a36.408889 36.408889 0 0 0 49.095111-14.506667 35.157333 35.157333 0 0 0-14.791111-48.128l-160.995556-84.593778L801.564444 195.185778l-394.922666 453.518222c-0.284444 0.284444-0.398222 0.682667-0.682667 1.024a35.214222 35.214222 0 0 0-16.213333 29.582222v261.12a35.726222 35.726222 0 0 0 36.295111 35.498667v0.056889a35.84 35.84 0 0 0 36.181333-35.498667v-246.158222l431.104-495.331556-89.6 653.312-227.271111-109.226666a36.693333 36.693333 0 0 0-48.526222 16.213333 35.441778 35.441778 0 0 0 16.611555 47.616l270.108445 129.877333a36.750222 36.750222 0 0 0 15.985778 3.640889l0.568889-0.113778 1.934222 0.170667a36.010667 36.010667 0 0 0 35.896889-30.776889l112.014222-816.128a34.645333 34.645333 0 0 0-2.389333-26.055111z" p-id="9872"></path></svg>