<?xml version="1.0" standalone="no"?><!DOCTYPE svg PUBLIC "-//W3C//DTD SVG 1.1//EN" "http://www.w3.org/Graphics/SVG/1.1/DTD/svg11.dtd"><svg t="1781769542772" class="icon" viewBox="0 0 1024 1024" version="1.1" xmlns="http://www.w3.org/2000/svg" p-id="18017" xmlns:xlink="http://www.w3.org/1999/xlink" width="200" height="200"><path d="M567.1 776.4l4.5 4.4c7.5 7.4 19.6 7.4 27 0l315.3-311.1c15.5-15.2 24.2-36.1 24.2-57.8 0-21.7-8.7-42.5-24.2-57.8L643.6 87.5c-15.6-15.4-36.6-24-58.5-23.9-22.2 0-42.9 8.5-58.6 23.9L211.2 398.7c-3.6 3.5-5.6 8.3-5.6 13.3s2 9.8 5.6 13.3l4.5 4.4L112.1 532c-15.7 15.4-24.3 35.9-24.3 57.8s8.6 42.4 24.3 57.8l234.3 231.1c11.1 11 25.1 18.6 40.3 21.9H102.6c-10.5 0-23.8 12-23.8 30.7 0 18.8 13.2 29 23.7 29h777.3c10.5 0 25-10.2 25-29 0-18.7-14.5-30.7-25-30.7H423c15.1-3.4 29.1-10.8 40.4-21.9l103.7-102.3z m-166.5 60.5c-10.4 0-20.4-4.1-27.8-11.4L166.7 622.2c-7.4-7.2-11.6-17.1-11.6-27.4 0-10.3 4.2-20.2 11.6-27.4l91.2-89.9 261.6 258-91.2 89.9c-7.3 7.5-17.3 11.6-27.7 11.5z" p-id="18018"></path></svg>