<?xml version="1.0" standalone="no"?><!DOCTYPE svg PUBLIC "-//W3C//DTD SVG 1.1//EN" "http://www.w3.org/Graphics/SVG/1.1/DTD/svg11.dtd"><svg t="1784012723849" class="icon" viewBox="0 0 1024 1024" version="1.1" xmlns="http://www.w3.org/2000/svg" p-id="7794" xmlns:xlink="http://www.w3.org/1999/xlink" width="200" height="200"><path d="M588 298.4H256.8l122.8-118c6.4-6 6.4-16.4 0.4-22.8l-22-23.2c-6-6.4-16.4-6.4-22.8-0.4L142.8 318.8c-6.4 6.4-6.4 16.8 0 23.2l192.4 184.4c6.4 6 16.4 6 22.8-0.4l22-23.2c6-6.4 6-16.4-0.4-22.8L256.8 362.4H588c130.4 0 236 106.8 234 237.6-2 128.4-109.2 230.4-237.6 230.4H261.2c-8.8 0-16 7.2-16 16v32c0 8.8 7.2 16 16 16h323.2c164 0 300-131.2 301.6-295.2 1.6-165.6-132.8-300.8-298-300.8z" p-id="7795"></path></svg>