<?xml version="1.0" standalone="no"?><!DOCTYPE svg PUBLIC "-//W3C//DTD SVG 1.1//EN" "http://www.w3.org/Graphics/SVG/1.1/DTD/svg11.dtd"><svg t="1783934887190" class="icon" viewBox="0 0 1024 1024" version="1.1" xmlns="http://www.w3.org/2000/svg" p-id="49365" xmlns:xlink="http://www.w3.org/1999/xlink" width="200" height="200"><path d="M832 928H192c-57.6 0-96-44.8-96-96V192c0-57.6 44.8-96 96-96h640c57.6 0 96 44.8 96 96v640c0 57.6-38.4 96-96 96zM192 160c-12.8 0-32 19.2-32 32v640c0 12.8 12.8 32 32 32h640c12.8 0 32-12.8 32-32V192c0-12.8-12.8-32-32-32H192z" fill="#333333" p-id="49366"></path><path d="M492.8 345.6L576 582.4l64-96c6.4-12.8 19.2-12.8 25.6-12.8H832c0 44.8-32 76.8-70.4 76.8h-70.4l-96 140.8c-12.8 19.2-32 19.2-51.2 6.4-6.4-6.4-6.4-12.8-12.8-19.2L448 441.6 384 537.6c-6.4 12.8-19.2 12.8-25.6 12.8H192c0-44.8 32-70.4 70.4-70.4h64l102.4-147.2c12.8-12.8 38.4-19.2 51.2-6.4 6.4 6.4 6.4 12.8 12.8 19.2z" fill="#333333" p-id="49367"></path></svg>