<?xml version="1.0" standalone="no"?><!DOCTYPE svg PUBLIC "-//W3C//DTD SVG 1.1//EN" "http://www.w3.org/Graphics/SVG/1.1/DTD/svg11.dtd"><svg t="1781769354955" class="icon" viewBox="0 0 1024 1024" version="1.1" xmlns="http://www.w3.org/2000/svg" p-id="10881" xmlns:xlink="http://www.w3.org/1999/xlink" width="200" height="200"><path d="M544 768h-384c-17.92 0-32-14.08-32-32v-384c0-17.92 14.08-32 32-32h384c17.92 0 32 14.08 32 32s-14.08 32-32 32H192v320h352c17.92 0 32 14.08 32 32s-14.08 32-32 32z m-256-256c-17.92 0-32 14.08-32 32s14.08 32 32 32h192c17.92 0 32-14.08 32-32S497.92 512 480 512h-192z m512 384H704V192h96c17.92 0 32-14.08 32-32s-14.08-32-32-32h-256c-17.92 0-32 14.08-32 32s14.08 32 32 32H640v704H544c-17.92 0-32 14.08-32 32s14.08 32 32 32h256c17.92 0 32-14.08 32-32s-14.08-32-32-32z m64-576h-64c-17.92 0-32 14.08-32 32s14.08 32 32 32h32v320h-32c-17.92 0-32 14.08-32 32s14.08 32 32 32h64c17.92 0 32-14.08 32-32v-384c0-17.92-14.08-32-32-32z" p-id="10882" fill="#515151"></path></svg>